<svg width="44" height="44" xmlns="http://www.w3.org/2000/svg">
  <path d="M39 17.42c0-1.337-1.12-2.42-2.5-2.42S34 16.083 34 17.42V27.58c0 1.337 1.12 2.42 2.5 2.42s2.5-1.083 2.5-2.42V17.42zm-28 0C11 16.082 9.88 15 8.5 15S6 16.083 6 17.42V27.58C6 28.918 7.12 30 8.5 30s2.5-1.083 2.5-2.42V17.42zM12.115 16H12v15.74c0 1.313 1.044 2.387 2.32 2.26H16V39.613C16 41 17.315 42 18.5 42c1.378 0 2.5-1 2.5-2.387V34h3V39.613C24 41 25.122 42 26.5 42c1.185 0 2.5-1 2.5-2.387V34h1.68c1.276.127 2.32-.947 2.32-2.26V16H12.115zM18 9c.552 0 1 .448 1 1s-.448 1-1 1-1-.448-1-1 .448-1 1-1zm9 0c.552 0 1 .448 1 1s-.448 1-1 1-1-.448-1-1 .448-1 1-1zm6 5.603V13.42c-.03-.334-.078-.664-.143-.99-.576-2.873-2.478-5.307-5.087-6.72l1.605-3.122c.1-.193.03-.435-.152-.54-.184-.105-.413-.033-.512.16l-1.624 3.16c-1.382-.624-2.93-.976-4.567-.976-1.65 0-3.21.357-4.598.99L16.29 2.21c-.1-.195-.33-.267-.513-.162-.183.105-.25.347-.152.54l1.613 3.138c-2.486 1.358-4.326 3.645-4.98 6.355-.168.704-.258 1.435-.258 2.187 0 .112.003.224.007.336H33z" fill="#9AA0A6" fill-rule="evenodd"/>
</svg>
