<svg width="54" height="44" xmlns="http://www.w3.org/2000/svg">
  <path d="M37.42 32.56c-3.17 0-3.888-2.175-3.888-4.02v-.313h2.043v.33c0 1.605.68 2.417 2.097 2.417 1.29 0 1.934-.942 1.934-1.92 0-1.383-.68-1.992-1.827-2.34l-1.4-.5c-1.865-.737-2.67-1.73-2.67-3.612 0-2.398 1.577-3.726 3.978-3.726 3.28 0 3.62 2.102 3.62 3.465v.297h-2.043v-.276c0-1.2-.52-1.9-1.792-1.9-.878 0-1.72.5-1.72 1.9 0 1.126.555 1.696 1.92 2.23l1.377.518c1.81.662 2.6 1.68 2.6 3.484.002 2.807-1.65 3.967-4.23 3.967zm-7.49-.258h-2.365l-1.65-9.918h-.035l-1.63 9.918h-2.366L19.41 19.137h2.062l1.683 10.233h.037l1.683-10.233h2.152l1.72 10.288h.037l1.666-10.288h2.026L29.93 32.302zM14.873 20.907l-1.524 6.49h3.03l-1.47-6.49h-.036zm2.635 11.395l-.79-3.226h-3.744l-.826 3.226h-2.133l3.638-13.165h2.617l3.368 13.165h-2.13zM0 28.54C0 33.243 4.89 38 10.92 38h32.16C49.11 38 54 33.242 54 28.54v-.946c0-4.372-4.234-9.862-9.677-10.345-.12-3.91-3.2-7.04-6.987-7.04-1.47 0-2.834.476-3.96 1.28-2.16-5-6.98-8.49-12.595-8.49C13.158 3 6.98 9.422 6.98 17.35c0 .14.016.276.02.415C2.908 18.997 0 23.975 0 27.595v.945z" fill="#97A0A6" fill-rule="evenodd"/>
</svg>
