<svg width="84" height="44" xmlns="http://www.w3.org/2000/svg">
  <path d="M1 28.002C1 29.105 1.888 30 3 30c1.105 0 2-.887 2-1.998v-4.004C5 22.895 4.112 22 3 22c-1.105 0-2 .887-2 1.998v4.004zm10-.005c0 1.106.888 2.003 2 2.003 1.105 0 2-.894 2-2.003v-8.994C15 17.897 14.112 17 13 17c-1.105 0-2 .894-2 2.003v8.994zm10 3.998c0 1.107.888 2.005 2 2.005 1.105 0 2-.897 2-2.005v-19.99C25 10.898 24.112 10 23 10c-1.105 0-2 .897-2 2.005v19.99zm39 0c0 1.107.888 2.005 2 2.005 1.105 0 2-.897 2-2.005v-19.99C64 10.898 63.112 10 62 10c-1.105 0-2 .897-2 2.005v19.99zm9-3.998c0 1.106.888 2.003 2 2.003 1.105 0 2-.894 2-2.003v-8.994C73 17.897 72.112 17 71 17c-1.105 0-2 .894-2 2.003v8.994zm10 .005c0 1.103.888 1.998 2 1.998 1.105 0 2-.887 2-1.998v-4.004C83 22.895 82.112 22 81 22c-1.105 0-2 .887-2 1.998v4.004zm-49-.005c0 1.106.888 2.003 2 2.003 1.105 0 2-.894 2-2.003v-8.994C34 17.897 33.112 17 32 17c-1.105 0-2 .894-2 2.003v8.994zm10 .006c0 1.103.888 1.997 2 1.997 1.105 0 2-.896 2-1.997v-5.006C44 21.894 43.112 21 42 21c-1.105 0-2 .896-2 1.997v5.006zm10-.006c0 1.106.888 2.003 2 2.003 1.105 0 2-.894 2-2.003v-8.994C54 17.897 53.112 17 52 17c-1.105 0-2 .894-2 2.003v8.994z" fill="#96A0A6" fill-rule="evenodd"/>
</svg>
