<svg width="50" height="44" xmlns="http://www.w3.org/2000/svg">
  <path d="M20.833 21.01l8.54-5.49c.468.304 1.027.48 1.627.48 1.306 0 2.417-.835 2.83-2H47v-2H33.83c-.413-1.165-1.524-2-2.83-2-1.657 0-3 1.343-3 3 0 .325.052.638.147.93l-8.576 5.514C19.115 19.162 18.577 19 18 19c-1.306 0-2.417.835-2.83 2H4v2h11.17c.413 1.165 1.524 2 2.83 2 1.657 0 3-1.343 3-3 0-.347-.06-.68-.167-.99zM33.83 30H47v2H33.83c-.413 1.165-1.524 2-2.83 2-1.657 0-3-1.343-3-3s1.343-3 3-3c1.306 0 2.417.835 2.83 2zm0-9H47v2H33.83c-.413 1.165-1.524 2-2.83 2-1.657 0-3-1.343-3-3s1.343-3 3-3c1.306 0 2.417.835 2.83 2zM0 8.992C0 7.892.89 7 1.99 7h46.02c1.1 0 1.99.898 1.99 1.992v26.016c0 1.1-.89 1.992-1.99 1.992H1.99C.89 37 0 36.102 0 35.008V8.992z" fill="#97A0A6" fill-rule="evenodd"/>
</svg>
