<svg width="44" height="44" xmlns="http://www.w3.org/2000/svg"><path d="M13.39 13.087c1.67 0 3.02 1.727 4.05 5.183l1.252 4.23 3.515-6.018c1.31-2.263 2.98-3.395 5.004-3.395 1.35 0 2.503.397 3.456 1.19.318.637.477 1.153.477 1.55 0 .596-.21 1.102-.626 1.52-.417.416-.844.625-1.28.625-.517 0-1.103-.308-1.758-.924-.656-.615-1.262-.923-1.818-.923-.476 0-1.013.516-1.608 1.55l-4.468 7.624 2.56 8.398c.4 1.35.935 2.026 1.61 2.026.596 0 1.23-.308 1.906-.924.675-.615 1.152-1.18 1.43-1.697.16 0 .357.158.596.476.238.317.357.555.357.714-.12.675-.854 1.678-2.204 3.008s-2.64 1.996-3.87 1.996c-1.67 0-3.02-1.728-4.052-5.183l-1.37-4.646-3.753 6.492c-1.31 2.264-2.98 3.395-5.004 3.395-1.35 0-2.5-.397-3.454-1.19-.318-.557-.477-1.073-.477-1.55 0-.596.208-1.102.625-1.52.417-.416.844-.624 1.28-.624.517 0 1.103.307 1.758.923.655.616 1.26.923 1.817.923.476 0 1.013-.517 1.608-1.55l4.706-8.1-2.442-7.983c-.397-1.35-.933-2.026-1.608-2.026-.596 0-1.232.31-1.907.924-.675.616-1.15 1.182-1.43 1.698-.158 0-.357-.16-.595-.476-.238-.318-.358-.556-.358-.715.12-.674.854-1.677 2.205-3.007 1.35-1.33 2.64-1.996 3.87-1.996zM37.53 2.46c.965 0 1.77.304 2.413.91.645.605.967 1.422.967 2.45 0 .417-.052.827-.156 1.23-.104.404-.303.83-.596 1.28-.293.45-.537.814-.732 1.094-.196.28-.554.68-1.074 1.2-.52.522-.876.87-1.065 1.046l-1.26 1.162c-.026.026-.032.062-.02.107.014.045.046.068.098.068h3.34c.274 0 .508-.05.703-.147.196-.096.352-.25.47-.458.116-.208.2-.384.253-.527.053-.143.112-.345.177-.605.026-.092.137-.137.332-.137.194 0 .344.04.448.117-.26 1.107-.514 2.266-.762 3.477-.026.182-.104.273-.234.273h-7.148c-.144-.156-.222-.37-.235-.645 1.25-1.38 2.35-2.848 3.3-4.404.95-1.555 1.426-2.808 1.426-3.76 0-.558-.15-1.05-.45-1.473-.3-.423-.703-.635-1.21-.635-.326 0-.63.068-.91.205-.28.137-.484.277-.614.42-.13.143-.26.306-.39.488l-.196.274c-.104 0-.224-.05-.36-.148-.138-.097-.206-.21-.206-.342.104-.234.24-.472.41-.712.17-.24.4-.51.693-.81.293-.3.664-.54 1.114-.724.45-.182.94-.273 1.474-.273z" fill="#97A0A6" fill-rule="evenodd"/></svg>