<svg width="44" height="44" xmlns="http://www.w3.org/2000/svg">
  <path d="M23 15.007h19.003c-.004 0-.003 0-.003-.007v22.008c0-.003.004-.007.003-.007H1.997C2 37 2 37 2 37.01V15c0 .004-.004.007-.003.007H21V37h2V15.007zM2.197 7h39.606C43.016 7 44 7.958 44 9.124v27.752C44 38.05 43.02 39 41.803 39H2.197C.984 39 0 38.042 0 36.876V9.124C0 7.95.98 7 2.197 7zM4 10h22v2H4v-2zm1 21h12v2H5v-2zm0-6h10v2H5v-2zm0-6h12v2H5v-2zm21 12h11v2H26v-2zm0-6h13v2H26v-2zm0-6h11v2H26v-2z" fill="#98A0A6" fill-rule="evenodd"/>
</svg>
