<svg width="44" height="44" xmlns="http://www.w3.org/2000/svg">
  <path d="M37.337 29.614c-.574 1.327-1.255 2.55-2.043 3.673-1.074 1.53-1.954 2.592-2.63 3.18-1.052.967-2.178 1.462-3.384 1.49-.865 0-1.91-.246-3.124-.746-1.22-.496-2.34-.743-3.364-.743-1.074 0-2.226.247-3.46.744-1.233.5-2.227.76-2.987.787-1.157.05-2.31-.46-3.46-1.53-.733-.64-1.652-1.738-2.752-3.293-1.18-1.66-2.15-3.586-2.91-5.782C6.407 25.022 6 22.724 6 20.502c0-2.547.55-4.744 1.652-6.584.867-1.48 2.02-2.645 3.46-3.5 1.444-.857 3.002-1.294 4.68-1.32.92 0 2.123.283 3.62.84 1.492.56 2.45.845 2.87.845.314 0 1.38-.332 3.183-.994 1.706-.615 3.147-.87 4.327-.77 3.197.26 5.598 1.52 7.196 3.79-2.86 1.732-4.274 4.158-4.246 7.27.026 2.426.906 4.444 2.634 6.046.784.743 1.66 1.318 2.632 1.726-.21.612-.434 1.2-.67 1.762zM30.005.76c0 1.9-.694 3.675-2.078 5.317-1.67 1.953-3.69 3.08-5.88 2.903-.03-.228-.045-.468-.045-.72 0-1.824.794-3.777 2.205-5.373.704-.81 1.6-1.48 2.685-2.017 1.084-.528 2.11-.82 3.073-.87.028.254.04.508.04.76z" fill="#99A0A6" fill-rule="evenodd"/>
</svg>
