<svg width="44" height="44" xmlns="http://www.w3.org/2000/svg">
  <path d="M26.248 33.143l-1.045-2.387c1.82-1.038 3.26-2.66 4.072-4.61l3.83 1.277c-.07.348-.105.708-.105 1.077 0 3.038 2.462 5.5 5.5 5.5s5.5-2.462 5.5-5.5-2.462-5.5-5.5-5.5c-1.957 0-3.676 1.022-4.65 2.562l-4.007-1.335c.103-.56.157-1.137.157-1.727 0-2.602-1.046-4.96-2.74-6.675l6.2-4.74c.87.578 1.916.915 3.04.915 3.038 0 5.5-2.462 5.5-5.5S39.538 1 36.5 1 31 3.462 31 6.5c0 1.183.373 2.28 1.01 3.176l-6.344 4.85C24.18 13.56 22.406 13 20.5 13c-1.746 0-3.382.47-4.788 1.293l-3.447-4.073C13.338 9.136 14 7.645 14 6c0-3.314-2.686-6-6-6S2 2.686 2 6s2.686 6 6 6c.946 0 1.84-.22 2.636-.61l3.46 4.092C12.195 17.22 11 19.72 11 22.5c0 2.125.698 4.087 1.877 5.67l-5.024 5.358C7.14 33.188 6.343 33 5.5 33 2.462 33 0 35.462 0 38.5S2.462 44 5.5 44s5.5-2.462 5.5-5.5c0-1.47-.576-2.803-1.514-3.79l4.75-5.067C15.91 31.11 18.1 32 20.5 32c1 0 1.966-.155 2.87-.442l1.046 2.387C22.958 34.935 22 36.605 22 38.5c0 3.038 2.462 5.5 5.5 5.5s5.5-2.462 5.5-5.5-2.462-5.5-5.5-5.5c-.43 0-.85.05-1.252.143z" fill="#95A0A6" fill-rule="evenodd"/>
</svg>
