<svg width="44" height="44" xmlns="http://www.w3.org/2000/svg">
  <path d="M8 21H2.005C.9 21 0 21.898 0 23.006v9.988C0 34.104.898 35 2.005 35h39.99C43.1 35 44 34.102 44 32.994v-9.988c0-1.11-.898-2.006-2.005-2.006H11V10.493C11 9.663 10.328 9 9.5 9 8.666 9 8 9.668 8 10.493V21zm28.5 9c1.38 0 2.5-1.12 2.5-2.5S37.88 25 36.5 25 34 26.12 34 27.5s1.12 2.5 2.5 2.5zm-9 0c1.38 0 2.5-1.12 2.5-2.5S28.88 25 27.5 25 25 26.12 25 27.5s1.12 2.5 2.5 2.5zM19 10.5C19 5.253 14.747 1 9.5 1S0 5.253 0 10.5h2C2 6.358 5.358 3 9.5 3c4.142 0 7.5 3.358 7.5 7.5h2zm-4 0C15 7.462 12.538 5 9.5 5S4 7.462 4 10.5h2C6 8.567 7.567 7 9.5 7S13 8.567 13 10.5h2z" fill="#95A0A6" fill-rule="evenodd"/>
</svg>
