<?xml version="1.0" encoding="UTF-8" standalone="no"?>
<svg width="44px" height="44px" viewBox="0 0 44 44" version="1.1" xmlns="http://www.w3.org/2000/svg" xmlns:xlink="http://www.w3.org/1999/xlink">
    <!-- Generator: Sketch 3.6.1 (26313) - http://www.bohemiancoding.com/sketch -->
    <title>shared-with-me-44px</title>
    <desc>Created with Sketch.</desc>
    <defs></defs>
    <g id="Shape-Manager-logos" stroke="none" stroke-width="1" fill="none" fill-rule="evenodd">
        <g id="shared-with-me-44px" fill="#999EA5">
            <path d="M22,14 C25.1633636,14 27.7272727,11.314 27.7272727,8 C27.7272727,4.686 25.1633636,2 22,2 C18.8366364,2 16.2727273,4.686 16.2727273,8 C16.2727273,11.314 18.8366364,14 22,14 Z M41.0909091,20 L29.6363636,20 C29.6363636,17.792 27.9258182,16 25.8181818,16 L18.1818182,16 C16.0741818,16 14.3636364,17.792 14.3636364,20 L2.90909091,20 C1.85527273,20 1,20.896 1,22 L1,28 L2.90909091,32 L2.90909091,40 C2.90909091,41.104 3.76436364,42 4.81818182,42 L10.5454545,42 C11.5992727,42 12.4545455,41.104 12.4545455,40 L12.4545455,32 L14.3636364,28 L14.3636364,24 L16.2727273,28 L16.2727273,40 C16.2727273,41.104 17.128,42 18.1818182,42 L25.8181818,42 C26.872,42 27.7272727,41.104 27.7272727,40 L27.7272727,28 L29.6363636,24 L29.6363636,28 L31.5454545,32 L31.5454545,40 C31.5454545,41.104 32.4007273,42 33.4545455,42 L39.1818182,42 C40.2356364,42 41.0909091,41.104 41.0909091,40 L41.0909091,32 L43,28 L43,22 C43,20.896 42.1447273,20 41.0909091,20 Z M36.3181818,18 C38.9546364,18 41.0909091,15.762 41.0909091,13 C41.0909091,10.238 38.9546364,8 36.3181818,8 C33.6817273,8 31.5454545,10.238 31.5454545,13 C31.5454545,15.762 33.6817273,18 36.3181818,18 Z M7.68181818,18 C10.3182727,18 12.4545455,15.762 12.4545455,13 C12.4545455,10.238 10.3182727,8 7.68181818,8 C5.04536364,8 2.90909091,10.238 2.90909091,13 C2.90909091,15.762 5.04536364,18 7.68181818,18 Z" id="Fill-1"></path>
        </g>
    </g>
</svg>