<svg width="44" height="44" xmlns="http://www.w3.org/2000/svg">
  <g fill="none" fill-rule="evenodd">
    <path d="M22 38.25c8.975 0 16.25-7.275 16.25-16.25S30.975 5.75 22 5.75 5.75 13.025 5.75 22 13.025 38.25 22 38.25zM22 42C10.954 42 2 33.046 2 22S10.954 2 22 2s20 8.954 20 20-8.954 20-20 20z" fill="#98A0A6"/>
    <path fill="#97A0A6" d="M2 21h39v2H2z"/>
    <path d="M21 4.223V41h2V3h-2v1.223z" fill="#98A0A6"/>
    <path d="M23.83 41.575C29.064 36.175 32 29.29 32 22c0-7.306-2.948-14.203-8.203-19.61l-1.793 1.744C26.817 9.084 29.5 15.362 29.5 22c0 6.624-2.672 12.89-7.466 17.835l1.795 1.74z" fill="#97A0A6"/>
    <path d="M7.787 10.754c4.282 2.55 9.066 3.905 14.022 3.905 5.197 0 10.204-1.49 14.637-4.283l-1.332-2.115c-4.04 2.545-8.587 3.897-13.306 3.897-4.5 0-8.844-1.23-12.744-3.554l-1.28 2.148zM9.066 35.372c3.9-2.323 8.244-3.552 12.743-3.552 4.718 0 9.264 1.352 13.305 3.897l1.332-2.116c-4.433-2.79-9.44-4.28-14.638-4.28-4.957 0-9.74 1.354-14.023 3.904l1.28 2.148z" fill="#97A0A6"/>
    <path d="M21.617 39.835C16.822 34.89 14.15 28.625 14.15 22c0-6.638 2.683-12.916 7.496-17.866L19.854 2.39C14.598 7.798 11.65 14.695 11.65 22c0 7.29 2.936 14.174 8.17 19.575l1.797-1.74z" fill="#97A0A6"/>
  </g>
</svg>
