<svg width="44" height="44" xmlns="http://www.w3.org/2000/svg">
  <path d="M28.95 40.996l8.564-5.14L37 35h2.004c2.2 0 3.996-1.794 3.996-4.006V20.006C43 17.786 41.21 16 39.004 16h-.92v-.022c.03-.69-.012-1.568-.18-2.57-.25-1.502-.74-2.988-1.53-4.39C33.895 4.616 29.055 2 21.597 2 14.102 2 9.403 4.655 7.242 9.13c-1.108 2.295-1.38 4.655-1.195 6.712l.015.158H4.996C2.796 16 1 17.794 1 20.006v10.988C1 33.214 2.79 35 4.996 35h4.008c2.2 0 3.996-1.794 3.996-4.006V20.006C13 17.786 11.21 16 9.004 16h-.927l1.975-.318c-.003-.015-.01-.082-.02-.196-.126-1.4.066-3.07.812-4.616C12.304 7.845 15.57 6 21.596 6c6.06 0 9.55 1.884 11.293 4.982.545.97.89 2.017 1.07 3.084.117.71.146 1.313.128 1.742 0 .027-.002.05 0 .032l1.992.16h-1.084C32.796 16 31 17.794 31 20.006v10.988C31 33.214 32.79 35 34.996 35h.06l-6.588 3.953C28.01 38.37 27.3 38 26.504 38h-6.008C19.116 38 18 39.12 18 40.5c0 1.39 1.118 2.5 2.496 2.5h6.008c1.21 0 2.218-.86 2.447-2.004z" fill="#93A0A6" fill-rule="evenodd"/>
</svg>
