<svg width="44" height="44" xmlns="http://www.w3.org/2000/svg">
  <path d="M31.242 9.038c.932.68 1.638 1.41 2.12 2.188.482.78.713 1.583.693 2.413-.022.83-.315 1.67-.882 2.518-.57.848-1.434 1.67-2.597 2.468-1.18.808-2.38 1.4-3.597 1.773-1.22.374-2.416.556-3.59.544-1.175-.01-2.308-.198-3.394-.562-1.088-.365-2.098-.887-3.03-1.566L7.31 11.78l3.73-2.557 9.523 6.94c.488.357 1.024.628 1.605.815.582.188 1.177.29 1.782.302.606.014 1.207-.062 1.8-.228.59-.165 1.135-.417 1.63-.756.493-.338.862-.71 1.108-1.12.243-.406.365-.825.364-1.254 0-.428-.124-.85-.37-1.268-.248-.416-.616-.802-1.104-1.158l-9.523-6.94L21.585 2l9.657 7.038zM6.08 12.826l4.59 3.38 3.118 14.752.038.027 3.24-10.066 4.57 3.365-.077 19.027-3.035-2.234.06-14.592-.038-.027-3.678 11.925-2.315-1.704-3.422-17.155-.038-.028-.06 14.59L6 31.853l.08-19.027zM23.99 24.79l5.478-3.845v13.398l10.15-7.125v4.677L23.99 42.865V24.79z" fill="#989EA5" fill-rule="evenodd"/>
</svg>
