<svg width="56" height="44" xmlns="http://www.w3.org/2000/svg">
  <g fill="none" fill-rule="evenodd">
    <path d="M26.24 36.665C23.668 38.15 20.683 39 17.5 39 7.835 39 0 31.165 0 21.5S7.835 4 17.5 4c3.183 0 6.168.85 8.74 2.335C21.824 9.91 19 15.375 19 21.5s2.824 11.59 7.24 15.165zM29.76 6.335C32.332 4.85 35.317 4 38.5 4 48.165 4 56 11.835 56 21.5S48.165 39 38.5 39c-3.183 0-6.168-.85-8.74-2.335C34.176 33.09 37 27.625 37 21.5S34.176 9.91 29.76 6.335z" fill="#93A0A6"/>
    <path d="M28 7.5c-4.25 3.19-7 8.275-7 14s2.75 10.81 7 14c4.25-3.19 7-8.275 7-14s-2.75-10.81-7-14z" fill="#92A0A6"/>
  </g>
</svg>
