<svg xmlns:xlink="http://www.w3.org/1999/xlink" width="1.808ex" height="2.843ex"  viewBox="0 -1078.4 778.5 1223.9" role="img" focusable="false" xmlns="http://www.w3.org/2000/svg">
<defs>
<path stroke-width="1" id="E1-MJAMS-25A1" d="M71 0Q59 4 55 16V346L56 676Q64 686 70 689H709Q719 681 722 674V15Q719 10 709 1L390 0H71ZM682 40V649H95V40H682Z"></path>
<path stroke-width="1" id="E1-MJMAIN-20D7" d="M-123 694Q-123 702 -118 708T-103 714Q-93 714 -88 706T-80 687T-67 660T-40 633Q-29 626 -29 615Q-29 606 -36 600T-53 590T-83 571T-121 531Q-135 516 -143 516T-157 522T-163 536T-152 559T-129 584T-116 595H-287L-458 596Q-459 597 -461 599T-466 602T-469 607T-471 615Q-471 622 -458 635H-99Q-123 673 -123 694Z"></path>
</defs>
<g stroke="currentColor" fill="currentColor" stroke-width="0" transform="matrix(1 0 0 -1 0 0)">
 <use xlink:href="#E1-MJAMS-25A1" x="0" y="0"></use>
 <use xlink:href="#E1-MJMAIN-20D7" x="624" y="282"></use>
</g>
</svg>
